<svg xmlns="http://www.w3.org/2000/svg" aria-hidden="true" style="position:absolute;width:0;height:0;overflow:hidden"><defs><symbol id="icon-paper" viewBox="0 0 32 32"><path fill="#95e1d3" d="M4.601 22.94a.433.433 0 0 1-.433-.433V6.602a4.02 4.02 0 0 1 4.041-3.944h18.448a.433.433 0 0 1 0 .866H8.209a3.156 3.156 0 0 0-3.177 3.09v15.895a.433.433 0 0 1-.433.433z" style="fill:var(--color1, #95e1d3)"/><path fill="#95e1d3" d="M25.748 10.744h-2.699a.433.433 0 0 1 0-.866h1.764a2.556 2.556 0 0 1-.13-2.072h-1.635a.433.433 0 0 1 0-.866h2.319a.434.434 0 0 1 .432.451.437.437 0 0 1-.071.219c-.093.142-.877 1.425.291 2.361a.434.434 0 0 1-.271.77z" style="fill:var(--color1, #95e1d3)"/><path fill="#95e1d3" d="M23.049 26.223a.433.433 0 0 1-.433-.433V6.602a.433.433 0 0 1 .866 0V25.79a.433.433 0 0 1-.433.433z" style="fill:var(--color1, #95e1d3)"/><path fill="#95e1d3" d="M3.716 29.342a3.017 3.017 0 0 1-1.943-.709 3.735 3.735 0 0 1-1.166-4.009 3.736 3.736 0 0 1 2.947-2.543.414.414 0 0 1 .07-.006H20.12a.434.434 0 0 1 .431.397.433.433 0 0 1-.361.462 2.866 2.866 0 0 0-1.366 5.031c.373.314.84.494 1.328.509h.08c.338-.004.672-.082.977-.228a2.406 2.406 0 0 0 1.407-2.189.433.433 0 0 1 .866 0 3.26 3.26 0 0 1-1.903 2.973 3.19 3.19 0 0 1-1.323.307.403.403 0 0 1-.049.003H3.758a.536.536 0 0 1-.041.002zm-.055-6.402a2.869 2.869 0 0 0-1.33 5.031c.378.318.854.496 1.348.506h14.415l-.072-.07a3.737 3.737 0 0 1 .196-5.466L3.661 22.94zM26.657 10.744h-.798a.433.433 0 0 1 0-.866h.797a3.182 3.182 0 0 0 2.929-1.941 3.175 3.175 0 0 0-.649-3.453 3.175 3.175 0 0 0-4.877.386 3.182 3.182 0 0 0-.578 1.741.42.42 0 0 1-.275.395.446.446 0 0 1-.47-.107.428.428 0 0 1-.119-.309 4.044 4.044 0 1 1 4.041 4.151v.002zM20.556 7.279H7.551a.433.433 0 0 1 0-.866h13.005a.433.433 0 0 1 0 .866zM20.556 11.182h-3.475a.433.433 0 0 1 0-.866h3.475a.433.433 0 0 1 0 .866zM8.541 11.182h-.989a.433.433 0 0 1 0-.866h.989a.433.433 0 0 1 0 .866zM20.556 15.085h-3.295a.433.433 0 0 1 0-.866h3.295a.433.433 0 0 1 0 .866zM8.046 15.085h-.495a.433.433 0 0 1 0-.866h.495a.433.433 0 0 1 0 .866zM20.556 18.988h-.466a.433.433 0 0 1 0-.866h.466a.433.433 0 0 1 0 .866zM13.387 18.988H7.549a.433.433 0 0 1 0-.866h5.838a.433.433 0 0 1 0 .866zM12.517 17.254a3.6 3.6 0 0 1-2.988-1.597 3.596 3.596 0 0 1 .708-4.773 3.6 3.6 0 0 1 3.323-.66 3.593 3.593 0 0 1 .953 6.425 3.6 3.6 0 0 1-1.996.605zm0-6.32a2.732 2.732 0 0 0-2.676 2.196 2.729 2.729 0 1 0 2.676-2.197v.001z" style="fill:var(--color1, #95e1d3)"/><path fill="#95e1d3" d="M11.668 14.093a1.224 1.224 0 1 1-.003-2.45 1.224 1.224 0 0 1 .004 2.451zm0-1.585a.363.363 0 0 0-.354.29c-.016.082-.004.167.036.24s.103.131.18.163a.362.362 0 0 0 .438-.133.36.36 0 0 0-.3-.561zM17.257 20.327a.433.433 0 0 1-.306-.127l-3.367-3.367c-.041-.04-.074-.088-.097-.14s-.035-.11-.035-.167a.425.425 0 0 1 .126-.31.437.437 0 0 1 .617.006l3.232 3.23.834-.048.048-.835-.07-.07-.707-.08a.433.433 0 0 1-.381-.381l-.059-.515-.514-.058a.433.433 0 0 1-.381-.381l-.08-.707-1.038-1.038a.432.432 0 0 1 .612-.612l1.143 1.144c.069.069.113.16.124.257l.059.515.515.058a.433.433 0 0 1 .381.381l.059.516.516.059a.433.433 0 0 1 .257.124l.314.314a.423.423 0 0 1 .125.331l-.082 1.413a.432.432 0 0 1-.407.407l-1.437.083z" style="fill:var(--color1, #95e1d3)"/></symbol><symbol id="icon-home" viewBox="0 0 32 32"><path fill="#95e1d3" d="M23.442 8.871a.63.63 0 0 0-.884 0 .63.63 0 0 0 0 .884.63.63 0 0 0 .884 0 .631.631 0 0 0 .183-.442.631.631 0 0 0-.183-.442zM9.375 17.625h-5a.625.625 0 0 0-.625.625v5c0 .345.28.625.625.625h5c.345 0 .625-.28.625-.625v-5a.625.625 0 0 0-.625-.625zm-.625 5H5v-3.75h3.75v3.75zM31.614 13.11a.626.626 0 0 0-.681.135l-6.369 6.369-7.424 7.424-3.894 3.894a.624.624 0 0 0 .442 1.067h17.688c.345 0 .625-.28.625-.625V13.687a.623.623 0 0 0-.386-.577zm-.864 17.64H15.196l2.385-2.385.597.597a.623.623 0 0 0 .884 0 .625.625 0 0 0 0-.884l-.597-.597 1.591-1.591.597.597a.623.623 0 0 0 .884 0 .625.625 0 0 0 0-.884l-.597-.597 1.591-1.591.597.597a.623.623 0 0 0 .884 0 .625.625 0 0 0 0-.884l-.597-.597 1.591-1.591.597.597a.623.623 0 0 0 .884 0 .625.625 0 0 0 0-.884l-.597-.597 1.591-1.591.597.596a.623.623 0 0 0 .884 0 .625.625 0 0 0 0-.884l-.597-.597 2.385-2.385v15.554z" style="fill:var(--color1, #95e1d3)"/><path fill="#95e1d3" d="M28.489 20.655a.626.626 0 0 0-.681.135l-7.018 7.018a.626.626 0 0 0 .441 1.067h7.018c.345 0 .625-.28.625-.625v-7.018a.623.623 0 0 0-.386-.577zm-.864 6.97h-4.884l4.884-4.884v4.884zM28.941 9.329a.625.625 0 0 0-.657-.145l-4.268 1.563a.626.626 0 0 0-.227.145l-1.2 1.2-7.835-7.835a.625.625 0 0 0-.884 0l-9.431 9.431H2.134L14.312 1.509l6.683 6.683a.625.625 0 0 0 .884-.884L14.754.183a.625.625 0 0 0-.884 0L.183 13.87a.626.626 0 0 0 .441 1.067h.625v16.437c0 .345.28.625.625.625h9.937a.625.625 0 0 0 0-1.25H2.499V14.937h2.198a.625.625 0 0 0 .442-.183l9.172-9.173 7.393 7.393-9.268 9.268v-5.619h4.375a.625.625 0 0 0 0-1.25h-5a.625.625 0 0 0-.625.625v7.25c0 .073.013.143.036.208l-.56.56a2.542 2.542 0 0 0 0 3.589c.495.495 1.144.742 1.794.742s1.3-.247 1.794-.742l5.271-5.271a.625.625 0 0 0-.884-.884l-3.993 3.993-1.821-1.821 11.419-11.419 1.821 1.821-4.363 4.364a.625.625 0 0 0 .884.884l4.793-4.793a.626.626 0 0 0 .145-.227l1.563-4.268a.625.625 0 0 0-.145-.657zm-15.179 17-.394.394c-.243.243-.566.377-.91.377s-.667-.134-.91-.377-.377-.567-.377-.91.134-.667.377-.91l.394-.394 1.821 1.821zm12.931-13.443-1.309-1.309 2.065-.756-.756 2.065z" style="fill:var(--color1, #95e1d3)"/><path fill="#95e1d3" d="M21.043 19.931a.63.63 0 0 0-.884 0c-.116.117-.183.278-.183.442s.067.326.183.442a.63.63 0 0 0 .884 0c.116-.117.183-.278.183-.442s-.067-.325-.183-.442zM14.312 9.438c-1.31 0-2.375 1.065-2.375 2.375s1.065 2.375 2.375 2.375 2.375-1.065 2.375-2.375a2.378 2.378 0 0 0-2.375-2.375zm0 3.5c-.62 0-1.125-.505-1.125-1.125s.505-1.125 1.125-1.125 1.125.505 1.125 1.125-.505 1.125-1.125 1.125z" style="fill:var(--color1, #95e1d3)"/></symbol><symbol id="icon-computer" viewBox="0 0 32 32"><path fill="#95e1d3" d="M30.4.023H1.6a1.6 1.6 0 0 0-1.6 1.6v19.2a1.6 1.6 0 0 0 1.6 1.6h9.067a2.67 2.67 0 0 1 2.667 2.667 2.672 2.672 0 0 1-2.667 2.667c-.007 0-.013.004-.021.004a.49.49 0 0 0-.114.023.62.62 0 0 0-.087.024.572.572 0 0 0-.087.058.577.577 0 0 0-.078.06.493.493 0 0 0-.053.076.477.477 0 0 0-.057.101c0 .006-.007.011-.01.018l-1.067 3.2a.534.534 0 0 0 .507.702h12.8a.534.534 0 0 0 .506-.702l-1.067-3.2c0-.007-.007-.011-.01-.018a.5.5 0 0 0-.058-.1.584.584 0 0 0-.053-.077.505.505 0 0 0-.078-.06.507.507 0 0 0-.087-.058.62.62 0 0 0-.087-.024.49.49 0 0 0-.114-.023c-.008 0-.013-.004-.021-.004a2.672 2.672 0 0 1-2.667-2.667 2.67 2.67 0 0 1 2.667-2.667h9.068a1.6 1.6 0 0 0 1.6-1.6v-19.2a1.6 1.6 0 0 0-1.6-1.6zM17.6 25.09a3.738 3.738 0 0 0 3.342 3.712l.718 2.154H10.341l.718-2.154a3.74 3.74 0 0 0 3.342-3.712 3.723 3.723 0 0 0-1.126-2.667h5.452a3.72 3.72 0 0 0-1.126 2.667zm13.333-4.267a.533.533 0 0 1-.533.533H1.6a.533.533 0 0 1-.533-.533v-1.6h29.867v1.6zM1.067 18.156V1.623c0-.295.239-.533.533-.533h28.8c.295 0 .533.239.533.533v16.533H1.066z" style="fill:var(--color1, #95e1d3)"/><path fill="#95e1d3" d="m22.569 8.051-1.535-.512.724-1.449a.532.532 0 0 0-.1-.615L20.15 3.967a.532.532 0 0 0-.615-.1l-1.449.724-.512-1.535a.534.534 0 0 0-.506-.365h-2.133a.532.532 0 0 0-.505.365l-.512 1.535-1.449-.724a.532.532 0 0 0-.615.1l-1.508 1.508a.532.532 0 0 0-.1.615l.724 1.449-1.535.512a.532.532 0 0 0-.365.505v2.133c0 .229.147.433.365.505l1.535.512-.724 1.449a.536.536 0 0 0 .1.616l1.508 1.508c.162.162.41.203.615.1l1.449-.724.512 1.535a.532.532 0 0 0 .505.365h2.133a.534.534 0 0 0 .506-.365l.512-1.535 1.448.724a.534.534 0 0 0 .615-.1l1.508-1.508a.534.534 0 0 0 .1-.616l-.724-1.449 1.535-.512a.532.532 0 0 0 .365-.505V8.556a.532.532 0 0 0-.365-.505zm-.702 2.254-1.755.587a.534.534 0 0 0-.308.744l.827 1.653-.965.965-1.653-.827a.534.534 0 0 0-.747.309l-.584 1.755h-1.364l-.587-1.755a.534.534 0 0 0-.744-.308l-1.653.827-.965-.965.827-1.653a.533.533 0 0 0-.308-.744l-1.755-.587V8.942l1.755-.587a.534.534 0 0 0 .308-.744l-.827-1.653.965-.965 1.653.827a.532.532 0 0 0 .744-.308l.587-1.755h1.364l.587 1.755a.532.532 0 0 0 .747.308l1.653-.827.965.965-.827 1.653a.534.534 0 0 0 .308.744l1.755.587-.003 1.364z" style="fill:var(--color1, #95e1d3)"/><path fill="#95e1d3" d="M16 6.423a3.2 3.2 0 1 0 0 6.4 3.2 3.2 0 0 0 0-6.4zm0 5.333a2.133 2.133 0 1 1 0-4.266 2.133 2.133 0 0 1 0 4.266z" style="fill:var(--color1, #95e1d3)"/></symbol><symbol id="icon-digitalmarketing" viewBox="0 0 32 32"><path fill="#95e1d3" d="M11.733 13.333V1.6c0-.907-.693-1.6-1.6-1.6H4.8c-.907 0-1.6.693-1.6 1.6v11.733c0 .907.693 1.6 1.6 1.6h5.333c.907 0 1.6-.693 1.6-1.6zm-1.066-1.6h-6.4V3.2h6.4v8.533zM4.8 1.067h5.333c.32 0 .533.213.533.533v.533h-6.4V1.6c0-.32.213-.533.533-.533zm-.533 12.266V12.8h6.4v.533c0 .32-.213.533-.533.533H4.801c-.32 0-.533-.213-.533-.533z" style="fill:var(--color1, #95e1d3)"/><path fill="#95e1d3" d="M9.92 7.467 5.867 4.214v6.507L9.92 7.468zM6.933 6.453l1.28 1.013-1.28 1.013V6.452zM14.933 9.067c0-3.52 2.88-6.4 6.4-6.4 1.493 0 2.987.533 4.16 1.493L24.32 5.333C22.24 3.68 19.253 4 17.6 6.08a4.764 4.764 0 0 0-1.067 2.987H17.6a3.71 3.71 0 0 1 3.733-3.733c.8 0 1.6.267 2.24.747L22.4 7.254a1.925 1.925 0 0 0-1.067-.32A2.14 2.14 0 0 0 19.2 9.067h1.067c0-.587.48-1.067 1.067-1.067.107 0 .16 0 .267.053l-.64.64.747.747.64-.64c0 .107.053.16.053.267a1.07 1.07 0 0 1-1.067 1.067v1.067a2.14 2.14 0 0 0 2.133-2.133c0-.373-.107-.747-.32-1.067l1.173-1.173c1.227 1.653.906 4-.747 5.227-.64.48-1.44.747-2.24.747v1.067a4.78 4.78 0 0 0 3.733-7.787l1.12-1.12c2.293 2.667 1.973 6.72-.747 9.014-1.12.96-2.614 1.493-4.107 1.493v1.067a7.455 7.455 0 0 0 7.467-7.467c0-1.813-.64-3.52-1.813-4.907l.96-.96h2.453V2.135h-2.133V.002h-1.067v2.453l-.96.96c-3.147-2.667-7.84-2.347-10.56.747a7.542 7.542 0 0 0-1.813 4.907h1.067zM26.133 19.733H21.44L11.307 16h-1.173c-.907 0-1.6.693-1.6 1.6v10.667c0 .907.693 1.6 1.6 1.6h1.173L21.44 25.6h1.493v4.8c0 .907.693 1.6 1.6 1.6s1.6-.693 1.6-1.6v-4.8c.907 0 1.6-.693 1.6-1.6v-2.667c0-.907-.693-1.6-1.6-1.6zm-14.4-2.453 9.067 3.36v4.053l-9.067 3.84V17.28zM9.6 28.267V17.6c0-.32.213-.533.533-.533h.533V28.8h-.533c-.32 0-.533-.213-.533-.533zM25.067 30.4c0 .32-.213.533-.533.533s-.533-.213-.533-.533v-4.8h1.067v4.8zm1.6-6.4c0 .32-.213.533-.533.533h-4.267V20.8h4.267c.32 0 .533.213.533.533V24zM5.333 21.867h2.133v1.067H5.333v-1.067zM5.497 17.985l.754-.754 1.584 1.584-.754.754-1.584-1.584zM5.497 26.815l1.584-1.584.754.754-1.584 1.584-.754-.754z" style="fill:var(--color1, #95e1d3)"/><path fill="#95e1d3" d="M13.867 10.187v.533c0 3.2 2.613 5.813 5.813 5.813h.587v-6.4H14.4l-.533.053zM19.2 11.2v4.267c-2.24-.213-4-2.027-4.213-4.267H19.2zM12.8 1.6H16v1.067h-3.2V1.6zM29.867 11.2v10.133c0 .32-.213.533-.533.533h-.533v1.067h.533c.907 0 1.6-.693 1.6-1.6V11.2h-1.067zM2.133 21.333V11.2H1.066v10.133c0 .907.693 1.6 1.6 1.6h1.6v-1.067h-1.6c-.32 0-.533-.213-.533-.533z" style="fill:var(--color1, #95e1d3)"/></symbol><symbol id="icon-statistic" viewBox="0 0 32 32"><path fill="#95e1d3" d="M30.047 12.771h-5.626v17.354h-1.874V16.858h-5.626v13.267h-1.874v-16.86H9.421v16.86H7.578v-9.348H1.952v9.348H-.001V32h32v-1.875h-1.953V12.771zM5.703 22.652v1.875H3.829v-1.875h1.874zm-1.874 7.473v-3.723h1.874v3.723H3.829zm9.342-14.985v1.875h-1.874V15.14h1.874zm-1.873 14.985V18.89h1.874v11.235h-1.874zm9.373-11.392v1.875h-1.874v-1.875h1.874zm-1.874 11.392v-7.642h1.874v7.642h-1.874zm9.374-15.479v1.875h-1.874v-1.875h1.874zm-1.874 15.479V18.396h1.874v11.729h-1.874z" style="fill:var(--color1, #95e1d3)"/><path fill="#95e1d3" d="M26.388 0v1.875h2.411l-8.639 8.64-7.157-7.158L.008 16.353l1.327 1.325L13.003 6.009l7.157 7.157 9.965-9.965V5.62h1.876V-.001h-5.612z" style="fill:var(--color1, #95e1d3)"/></symbol><symbol id="icon-clock" viewBox="0 0 33 32"><path fill="#95e1d3" d="M16.344 4.781c-2.267 0-4.482.658-6.367 1.891s-3.354 2.985-4.221 5.035-1.094 4.306-.652 6.482c.442 2.176 1.534 4.175 3.136 5.744s3.645 2.637 5.868 3.07c2.223.433 4.527.211 6.622-.638s3.884-2.287 5.143-4.132A11.053 11.053 0 0 0 27.804 16c-.003-2.974-1.212-5.826-3.36-7.929s-5.061-3.286-8.1-3.29zm9.534 11.657h1.021a10.193 10.193 0 0 1-2.779 6.557l-.719-.703a.44.44 0 0 0-.316-.128.453.453 0 0 0-.413.27.42.42 0 0 0 0 .334.428.428 0 0 0 .097.142l.719.703a10.638 10.638 0 0 1-6.697 2.72v-1c0-.116-.047-.227-.131-.309a.451.451 0 0 0-.632 0 .431.431 0 0 0-.131.309v1a10.635 10.635 0 0 1-6.697-2.72l.719-.703c.041-.041.074-.089.097-.142a.42.42 0 0 0 0-.334.443.443 0 0 0-.413-.27.453.453 0 0 0-.316.128l-.719.703a10.19 10.19 0 0 1-2.778-6.557h1.021c.119 0 .232-.046.316-.128a.431.431 0 0 0 0-.618.451.451 0 0 0-.316-.128H5.79a10.187 10.187 0 0 1 2.778-6.556l.719.703a.451.451 0 0 0 .632 0 .431.431 0 0 0 0-.618L9.2 8.389a10.638 10.638 0 0 1 6.697-2.72v1c0 .116.047.227.131.309a.451.451 0 0 0 .632 0 .431.431 0 0 0 .131-.309v-1a10.635 10.635 0 0 1 6.697 2.72l-.719.704c-.041.041-.074.089-.097.142a.42.42 0 0 0 0 .334.44.44 0 0 0 .413.27.453.453 0 0 0 .316-.128l.719-.703a10.19 10.19 0 0 1 2.778 6.556h-1.021c-.119 0-.232.046-.316.128a.431.431 0 0 0 0 .618.451.451 0 0 0 .316.128h.001z" style="fill:var(--color1, #95e1d3)"/><path fill="#95e1d3" d="M21.42 15.563h-2.822c-.089-.437-.308-.837-.63-1.152s-.731-.529-1.177-.617V9.469c0-.116-.047-.227-.131-.309a.451.451 0 0 0-.632 0 .431.431 0 0 0-.131.309v4.325c-.408.079-.787.265-1.096.539s-.536.624-.657 1.014-.132.805-.031 1.2.31.757.604 1.045.663.493 1.067.592c.404.099.828.089 1.226-.03s.756-.341 1.036-.643c.279-.302.47-.673.551-1.073h2.822c.119 0 .232-.046.316-.128a.431.431 0 0 0 0-.618.451.451 0 0 0-.316-.128zm-5.076 1.812c-.278 0-.549-.081-.78-.232s-.411-.366-.517-.617a1.351 1.351 0 0 1 .304-1.498 1.432 1.432 0 0 1 1.53-.298c.257.104.476.28.63.506s.237.492.237.764c0 .365-.148.714-.412.972s-.62.403-.993.403z" style="fill:var(--color1, #95e1d3)"/><path fill="#95e1d3" d="M31.967 2.236 30.403.706c-.46-.449-1.083-.702-1.732-.702s-1.272.252-1.732.702l-1.226 1.2c-.041.041-.074.089-.097.142a.42.42 0 0 0 0 .334.428.428 0 0 0 .097.142l1.159 1.135-1.719 1.683c-2.491-1.98-5.602-3.061-8.81-3.061s-6.32 1.081-8.81 3.061L5.814 3.659l1.159-1.135a.443.443 0 0 0 .131-.309.437.437 0 0 0-.131-.309L5.747.706C5.287.257 4.664.004 4.015.004S2.743.256 2.283.706L.72 2.237c-.459.45-.717 1.06-.717 1.696S.261 5.179.72 5.629l1.226 1.2a.44.44 0 0 0 .316.128.453.453 0 0 0 .316-.128l1.16-1.135 1.719 1.683C3.306 9.97 2.199 13.243 2.343 16.58s1.53 6.507 3.896 8.913l-2.202 4.839a1.167 1.167 0 0 0 .091 1.13c.11.166.261.303.439.397s.377.144.579.144h1.118c.234 0 .464-.067.66-.192s.352-.303.448-.513l1.643-3.609c2.204 1.329 4.742 2.032 7.33 2.032s5.126-.704 7.33-2.032l1.642 3.609c.096.209.251.387.447.512s.425.191.66.192h1.118a1.23 1.23 0 0 0 1.018-.541 1.173 1.173 0 0 0 .091-1.13l-2.202-4.839c2.366-2.406 3.752-5.576 3.896-8.913s-.964-6.61-3.114-9.203l1.719-1.683 1.16 1.135a.44.44 0 0 0 .316.128.453.453 0 0 0 .316-.128l1.226-1.2c.459-.45.716-1.06.716-1.695s-.258-1.245-.716-1.695zM2.262 5.9l-.909-.891c-.291-.286-.455-.673-.455-1.077s.164-.791.455-1.077l1.563-1.53c.292-.285.688-.445 1.1-.445s.808.16 1.1.445l.911.89L2.262 5.9zm2.108-.825.813-.795 1.673 1.638c-.282.254-.553.519-.813.796L4.37 5.076zM6.555 30.94a.314.314 0 0 1-.292.185H5.145a.32.32 0 0 1-.318-.288.296.296 0 0 1 .027-.152l2.067-4.541c.424.376.871.727 1.339 1.05l-1.705 3.745zm21.256.043a.314.314 0 0 1-.268.142h-1.118c-.062 0-.122-.018-.174-.05s-.093-.08-.118-.135l-1.704-3.745a14.03 14.03 0 0 0 1.339-1.05l2.067 4.54a.31.31 0 0 1-.026.298h.001zm-11.467-2.139c-2.595 0-5.132-.753-7.289-2.165s-3.839-3.417-4.832-5.764c-.993-2.347-1.253-4.929-.747-7.421s1.756-4.78 3.591-6.576c1.835-1.796 4.173-3.02 6.718-3.515s5.183-.241 7.581.731c2.397.972 4.446 2.618 5.888 4.731s2.211 4.595 2.211 7.136c-.004 3.405-1.387 6.67-3.847 9.078s-5.795 3.762-9.273 3.766zM26.645 6.712c-.26-.276-.531-.541-.813-.796l1.673-1.638.813.795-1.673 1.638zm4.69-1.703-.91.891-3.765-3.685.911-.89c.292-.285.688-.445 1.1-.445s.808.16 1.1.445l1.563 1.53c.291.286.455.673.455 1.077s-.164.791-.455 1.077h.001z" style="fill:var(--color1, #95e1d3)"/></symbol></defs></svg>